<?xml version="1.0" encoding="utf-8"?>
<!-- Generator: Adobe Illustrator 16.0.0, SVG Export Plug-In . SVG Version: 6.00 Build 0)  -->
<!DOCTYPE svg PUBLIC "-//W3C//DTD SVG 1.1//EN" "http://www.w3.org/Graphics/SVG/1.1/DTD/svg11.dtd">
<svg version="1.1" id="Layer_1" xmlns="http://www.w3.org/2000/svg" xmlns:xlink="http://www.w3.org/1999/xlink" x="0px" y="0px"
	 width="1000px" height="1000px" viewBox="0 0 1000 1000" enable-background="new 0 0 1000 1000" xml:space="preserve">
<g>
	<path fill="#151111" d="M746.611,314.398l-49.015-112.19H566.345L388.801,313.854l-22.874-22.874l-113.279-20.695l-63.72,110.556
		l178.088,468.367h152.491l135.608-133.43l88.772-156.021l24.508-134.802L746.611,314.398z M472.977,756.841l-37.883-21.457
		l-113.28-310.429h23.092l1.177,2.135l130.206,329.426L472.977,756.841z M581.398,604.829v-0.021l-0.677-2.418l-1.002-3.683
		l-57.488-209.152v-46.292l1.612,4.422l83.5,227.257l-19.41,45.464L581.398,604.829z M632.243,516.45l-21.785-200.963l43.024,88.228
		L632.243,516.45z M521.84,735.167v0.021l-0.153,0.195l-86.593-303.349v-44.658l126.372,279.91l1.089,2.44l1.612,3.571
		l-7.014,10.218l-0.023,0.043L521.84,735.167z"/>
	<polygon fill="#151111" points="521.687,735.384 390.435,402.996 433.939,381.865 435.093,387.834 435.093,432.035 	"/>
	<path fill="#987211" d="M723.302,315.487l-0.283-1.459l-1.089-2.179v5.38l-68.447,86.485L632.243,516.45l-2.266-6.688
		l-65.812-194.755l46.292-1.699l0.13-0.174l0.285-0.37v-0.021l67.117-88.38l-112.561-1.459L368.65,358.337l-23.244-44.309
		l-67.162-19.955l-0.719,0.937l-44.571,58.251l-16.164,21.109l-6.535,8.541l-0.458,0.588l-0.174,0.239l176.999,438.763l0.021,0.042
		l1.243,3.072h113.65l10.239-10.348l121.187-122.538l0.327-0.587l88.228-152.95l1.502-2.592l22.134-111.82L723.302,315.487z
		 M523.844,347.685l83.5,227.257l-19.41,45.464l-6.535-15.576v-0.021l-0.677-2.418l-1.002-3.683L478.662,360.146l43.786-23.113
		l-0.217,0.239L523.844,347.685z M435.093,735.384l-113.28-310.429h23.092l1.177,2.135l130.206,329.426l-3.312,0.325
		L435.093,735.384z M521.84,735.167v0.021l-0.153,0.195L390.435,402.996l43.504-21.13l1.154,5.969v-0.458l126.372,279.91l1.089,2.44
		l1.612,3.571l-7.014,10.218l-0.023,0.043L521.84,735.167z"/>
	<polygon fill="#987211" points="610.458,311.85 610.873,312.743 610.588,313.135 	"/>
	<polygon fill="#987211" points="721.93,311.85 721.93,317.23 653.482,403.715 610.873,312.743 677.99,224.363 	"/>
	<polygon fill="#151111" points="579.72,598.707 478.662,360.146 522.448,337.033 522.231,337.272 523.844,347.685 522.231,343.263 
		522.231,389.555 	"/>
	<path fill="#785A0D" d="M557.129,683.559l-55.593,142.057l-1.917-66.269c0,0,0.021,0,0.064-0.021
		c0.022-0.021,0.066-0.044,0.109-0.065c0.13-0.066,0.261-0.153,0.371-0.217c11.632-6.776,18.015-15.817,21.501-23.484v-0.021
		c0.063-0.11,0.108-0.24,0.175-0.349v-0.021L557.129,683.559z"/>
	<polygon fill="#785A0D" points="566.345,660.053 562.554,669.727 561.465,667.286 	"/>
	<polygon fill="#151111" points="472.977,756.841 411.5,762.789 410.978,764.378 390.565,825.615 387.886,825.615 386.644,822.543 
		386.623,822.501 209.624,383.738 209.798,383.499 210.255,382.911 216.791,374.371 232.955,353.262 277.525,295.01 
		277.525,381.211 321.813,381.211 322.664,382.824 344.949,424.955 346.082,427.089 344.905,424.955 321.813,424.955 
		435.093,735.384 	"/>
	<polygon fill="#FFFFFF" points="345.232,424.955 346.082,427.089 344.905,424.955 	"/>
	<polygon fill="#FFFFFF" points="477.398,759.347 472.977,756.841 476.288,756.516 	"/>
	<path fill="none" stroke="#FF0000" stroke-width="2.1784" stroke-miterlimit="10" d="M204.54,381.205"/>
	<polygon fill="#FFFFFF" points="610.458,583.437 588.74,622.322 587.04,625.372 586.562,623.607 581.398,604.829 587.934,620.405 
		607.344,574.941 609.806,581.651 	"/>
	<path fill="#B7B5AC" d="M410.978,764.378l-20.413,61.237h-2.07l-1.873-3.114L209.624,383.738l0.174-0.239l6.993-9.128
		l16.164-21.109c12.439,1.831,28.777,6.993,39.931,21.044c1.677,2.091,3.224,4.4,4.64,6.905v21.785L410.978,764.378z"/>
	<polygon fill="#A4A298" points="210.255,382.911 406.053,751.042 277.525,402.996 276.694,379.791 	"/>
	<path fill="#9F9D94" d="M277.525,381.211v21.219l-67.728-18.931l6.993-9.128c16.534-2.331,42.414-1.023,56.095-0.065
		C274.563,376.397,276.11,378.706,277.525,381.211z"/>
	<polygon fill="#80600D" points="277.525,295.01 277.525,379.752 210.255,382.911 	"/>
	<polygon fill="#80600D" points="677.99,224.363 610.873,312.743 610.873,312.765 610.588,313.135 610.458,313.309 564.166,315.008 
		563.492,315.379 548.285,323.395 522.448,337.033 478.662,360.146 463.457,367.531 433.939,381.865 390.435,402.996 
		371.896,413.061 346.082,427.089 344.905,424.955 321.813,383.237 322.664,382.824 368.28,360.146 410.978,360.146 
		566.345,247.585 	"/>
	<path fill="none" stroke="#FF0000" stroke-width="2.1784" stroke-miterlimit="10" d="M501.536,825.615"/>
	<polygon fill="#7B5E1D" points="723.302,315.487 721.93,317.23 721.93,311.85 723.019,314.028 	"/>
	<polygon fill="#7B5E1D" points="610.458,672.034 633.289,692.143 632.962,692.729 511.775,815.268 532.994,781.676 
		609.718,672.013 	"/>
	<polygon fill="#7B5E1D" points="745.152,424.78 723.019,536.601 721.517,539.192 681.084,516.45 721.93,427.089 721.93,423.583 	
		"/>
	<polygon fill="#70561A" points="721.517,539.192 633.289,692.143 610.458,672.034 609.718,672.013 610.458,670.945 681.084,516.45 
			"/>
	<polygon fill="#70561A" points="745.152,424.78 721.93,423.583 721.93,317.23 723.302,315.487 	"/>
	<polygon fill="#80600D" points="721.93,317.23 721.93,423.583 716.832,423.321 653.482,403.715 	"/>
	<polygon fill="#B1AF15" points="590.024,625.372 569.829,662.776 569.787,662.863 564.166,673.298 562.554,669.727 
		561.465,667.286 435.093,387.376 435.093,387.834 433.939,381.865 433.896,381.668 457.705,360.146 478.662,360.146 
		578.501,597.946 581.398,604.808 581.398,604.829 587.934,620.405 588.74,622.322 	"/>
	<polygon fill="#989611" points="580.722,602.39 578.501,597.946 463.457,367.531 459.775,360.146 478.662,360.146 579.72,598.707 	
		"/>
	<path fill="#B1AF15" d="M521.687,735.384c0,0.043,0,0.108-0.021,0.153v0.021c0,0.327-0.021,0.587-0.065,0.894
		c-0.392,3.136-2.004,6.142-4.204,8.909c-5.555,7.035-14.879,12.395-17.231,13.682c-0.11,0.063-0.241,0.15-0.371,0.217
		c-0.043,0.021-0.087,0.045-0.109,0.065c-0.043,0.021-0.064,0.021-0.064,0.021h-20.957l-2.374-2.831L346.082,427.089l22.132-24.028
		l0.066-0.066h22.154L521.687,735.384z"/>
	<path fill="#989611" d="M521.687,735.384c0,0.043,0,0.108-0.021,0.153c0,0.325-0.021,0.608-0.065,0.915
		c-1.045,3.419-2.527,6.382-4.204,8.909c-6.731,10.216-16.774,13.658-17.712,13.964c-0.043,0.021-0.064,0.021-0.064,0.021
		L371.896,413.061l-3.682-9.999l0.066-0.066h22.154L521.687,735.384z"/>
	<polygon fill="#B1AF15" points="632.243,516.45 631.981,517.256 631.938,517.364 610.458,581.171 609.806,581.651 607.344,574.941 
		523.844,347.685 522.231,337.272 522.448,337.033 544.037,313.679 544.386,313.309 563.339,314.943 564.166,315.008 
		629.978,509.763 	"/>
	<polygon fill="#989611" points="629.978,509.763 544.037,313.679 544.386,313.309 563.339,314.943 	"/>
	<polygon fill="#80600D" points="681.084,516.45 610.458,670.945 609.718,672.013 566.345,670.945 569.787,662.863 569.829,662.776 
		586.562,623.607 587.934,620.405 607.344,574.941 631.938,517.364 631.981,517.256 	"/>
</g>
</svg>
